<svg xmlns="http://www.w3.org/2000/svg" xmlns:xlink="http://www.w3.org/1999/xlink">
	<symbol viewBox="0 0 72 72" id="price">
		<path d="M25.8469 8.99997H8.55C7.72301 8.99738 6.90366 9.15814 6.13896 9.47303C5.37426 9.78793 4.67929 10.2508 4.09393 10.8349C3.50857 11.4191 3.04435 12.1132 2.72792 12.8772C2.41149 13.6413 2.24907 14.4603 2.25 15.2873L2.25 32.5743C2.25234 33.7079 2.70154 34.7948 3.50016 35.5992L38.0503 70.1592C39.2328 71.3379 40.8343 71.9998 42.5039 71.9998C44.1735 71.9998 45.775 71.3379 46.9575 70.1592L63.4106 53.7061C64.5896 52.524 65.2517 50.9227 65.2517 49.2532C65.2517 47.5837 64.5896 45.9823 63.4106 44.8003L28.8717 10.2501C28.0675 9.45125 26.9805 9.002 25.8469 8.99997ZM20.25 22.5C20.25 23.39 19.9861 24.26 19.4916 25C18.9972 25.7401 18.2943 26.3168 17.4721 26.6574C16.6498 26.998 15.745 27.0871 14.8721 26.9135C13.9992 26.7399 13.1974 26.3113 12.568 25.682C11.9387 25.0526 11.5101 24.2508 11.3365 23.3779C11.1628 22.505 11.252 21.6002 11.5925 20.7779C11.9331 19.9556 12.5099 19.2528 13.2499 18.7584C13.99 18.2639 14.86 18 15.75 18C16.9435 18 18.0881 18.4741 18.932 19.318C19.7759 20.1619 20.25 21.3065 20.25 22.5Z"/>
		<path d="M9 2.25004C9 2.84678 9.23705 3.41908 9.65901 3.84103C10.081 4.26299 10.6533 4.50004 11.25 4.50004H29.1614L65.9095 41.2468C66.1164 41.4645 66.3647 41.6386 66.6399 41.7588C66.9151 41.8791 67.2116 41.943 67.5119 41.9468C67.8122 41.9507 68.1103 41.8944 68.3884 41.7812C68.6666 41.6681 68.9194 41.5004 69.1317 41.288C69.3441 41.0757 69.5118 40.8229 69.6249 40.5447C69.7381 40.2665 69.7944 39.9685 69.7905 39.6682C69.7867 39.3679 69.7228 39.0714 69.6025 38.7962C69.4823 38.521 69.3082 38.2727 69.0905 38.0658L32.2467 1.22207C31.853 0.83015 31.3853 0.520313 30.8709 0.310537C30.3565 0.100761 29.8055 -0.00477879 29.25 4.05312e-05H11.25C10.6533 4.05312e-05 10.081 0.237092 9.65901 0.659049C9.23705 1.08101 9 1.6533 9 2.25004Z"/>
	</symbol>

	<symbol viewBox="0 0 18 18" id="search">
		<path d="M12.5 11H11.71L11.43 10.73C12.4439 9.55402 13.0011 8.0527 13 6.5C13 5.21442 12.6188 3.95772 11.9046 2.8888C11.1903 1.81988 10.1752 0.986756 8.98744 0.494786C7.79973 0.00281635 6.49279 -0.125905 5.23192 0.124899C3.97104 0.375703 2.81285 0.994767 1.90381 1.90381C0.994767 2.81285 0.375703 3.97104 0.124899 5.23192C-0.125905 6.49279 0.00281635 7.79973 0.494786 8.98744C0.986756 10.1752 1.81988 11.1903 2.8888 11.9046C3.95772 12.6188 5.21442 13 6.5 13C8.11 13 9.59 12.41 10.73 11.43L11 11.71V12.5L16 17.49L17.49 16L12.5 11ZM6.5 11C4.01 11 2 8.99 2 6.5C2 4.01 4.01 2 6.5 2C8.99 2 11 4.01 11 6.5C11 8.99 8.99 11 6.5 11Z"/>
	</symbol>

	<symbol viewBox="0 0 72 72" id="timer">
		<path d="M19.146 17.904C23.9272 14.0732 29.8734 11.9902 36 12C42.375 12 48.234 14.208 52.854 17.904L57.213 13.545L61.455 17.787L57.096 22.146C60.2691 26.1184 62.2562 30.9061 62.8284 35.958C63.4007 41.0098 62.535 46.1206 60.3309 50.7022C58.1267 55.2838 54.6738 59.15 50.3694 61.8558C46.0651 64.5616 41.0842 65.9971 36 65.9971C30.9158 65.9971 25.9349 64.5616 21.6306 61.8558C17.3262 59.15 13.8733 55.2838 11.6692 50.7022C9.46506 46.1206 8.59933 41.0098 9.1716 35.958C9.74388 30.9061 11.7309 26.1184 14.904 22.146L10.545 17.79L14.787 13.548L19.146 17.904ZM36 60C38.7578 60 41.4885 59.4568 44.0364 58.4015C46.5842 57.3461 48.8992 55.7993 50.8493 53.8492C52.7993 51.8992 54.3461 49.5842 55.4015 47.0364C56.4568 44.4885 57 41.7578 57 39C57 36.2422 56.4568 33.5115 55.4015 30.9636C54.3461 28.4158 52.7993 26.1008 50.8493 24.1508C48.8992 22.2007 46.5842 20.6539 44.0364 19.5985C41.4885 18.5432 38.7578 18 36 18C30.4305 18 25.089 20.2125 21.1508 24.1508C17.2125 28.089 15 33.4305 15 39C15 44.5695 17.2125 49.911 21.1508 53.8492C25.089 57.7875 30.4305 60 36 60ZM39 36H48L33 55.5V42H24L39 22.485V36ZM24 3H48V9H24V3Z" />
	</symbol>
</svg>