<svg width="72" height="72" viewBox="0 0 72 72" fill="none" xmlns="http://www.w3.org/2000/svg">
<g clip-path="url(#clip0_8653_15)">
<path d="M25.8469 8.99997H8.55C7.72301 8.99738 6.90366 9.15814 6.13896 9.47303C5.37426 9.78793 4.67929 10.2508 4.09393 10.8349C3.50857 11.4191 3.04435 12.1132 2.72792 12.8772C2.41149 13.6413 2.24907 14.4603 2.25 15.2873L2.25 32.5743C2.25234 33.7079 2.70154 34.7948 3.50016 35.5992L38.0503 70.1592C39.2328 71.3379 40.8343 71.9998 42.5039 71.9998C44.1735 71.9998 45.775 71.3379 46.9575 70.1592L63.4106 53.7061C64.5896 52.524 65.2517 50.9227 65.2517 49.2532C65.2517 47.5837 64.5896 45.9823 63.4106 44.8003L28.8717 10.2501C28.0675 9.45125 26.9805 9.002 25.8469 8.99997ZM20.25 22.5C20.25 23.39 19.9861 24.26 19.4916 25C18.9972 25.7401 18.2943 26.3168 17.4721 26.6574C16.6498 26.998 15.745 27.0871 14.8721 26.9135C13.9992 26.7399 13.1974 26.3113 12.568 25.682C11.9387 25.0526 11.5101 24.2508 11.3365 23.3779C11.1628 22.505 11.252 21.6002 11.5925 20.7779C11.9331 19.9556 12.5099 19.2528 13.2499 18.7584C13.99 18.2639 14.86 18 15.75 18C16.9435 18 18.0881 18.4741 18.932 19.318C19.7759 20.1619 20.25 21.3065 20.25 22.5Z" fill="#1AA090"/>
<path d="M9 2.25004C9 2.84678 9.23705 3.41908 9.65901 3.84103C10.081 4.26299 10.6533 4.50004 11.25 4.50004H29.1614L65.9095 41.2468C66.1164 41.4645 66.3647 41.6386 66.6399 41.7588C66.9151 41.8791 67.2116 41.943 67.5119 41.9468C67.8122 41.9507 68.1103 41.8944 68.3884 41.7812C68.6666 41.6681 68.9194 41.5004 69.1317 41.288C69.3441 41.0757 69.5118 40.8229 69.6249 40.5447C69.7381 40.2665 69.7944 39.9685 69.7905 39.6682C69.7867 39.3679 69.7228 39.0714 69.6025 38.7962C69.4823 38.521 69.3082 38.2727 69.0905 38.0658L32.2467 1.22207C31.853 0.83015 31.3853 0.520313 30.8709 0.310537C30.3565 0.100761 29.8055 -0.00477879 29.25 4.05312e-05H11.25C10.6533 4.05312e-05 10.081 0.237092 9.65901 0.659049C9.23705 1.08101 9 1.6533 9 2.25004Z" fill="#1AA090"/>
</g>
<defs>
<clipPath id="clip0_8653_15">
<rect width="72" height="72" fill="white" transform="matrix(0 -1 1 0 0 72)"/>
</clipPath>
</defs>
</svg>
