<svg width="76" height="76" viewBox="0 0 76 76" fill="none" xmlns="http://www.w3.org/2000/svg">
<path d="M43.522 50.646L65.4004 72.5244" stroke="#1AA090" stroke-width="4"/>
<path d="M50.6462 43.5222L72.5247 65.4006" stroke="#1AA090" stroke-width="4"/>
<path d="M72.5247 65.4004C73.4694 66.3451 74.0001 67.6264 74.0001 68.9624C74.0001 70.2984 73.4694 71.5797 72.5247 72.5244" stroke="#1AA090" stroke-width="4" stroke-linecap="round" stroke-linejoin="round"/>
<path d="M65.4004 72.5246C66.3451 73.4693 67.6264 74 68.9624 74C70.2984 74 71.5797 73.4693 72.5244 72.5246" stroke="#1AA090" stroke-width="4" stroke-linecap="round" stroke-linejoin="round"/>
<path d="M24.6686 1.99995C27.6455 1.99995 30.5932 2.58628 33.3435 3.72549C36.0938 4.86469 38.5928 6.53445 40.6977 8.63943C42.8027 10.7444 44.4725 13.2434 45.6117 15.9937C46.7509 18.7439 47.3372 21.6917 47.3372 24.6686C47.3372 27.6454 46.7509 30.5932 45.6117 33.3435C44.4725 36.0937 42.8027 38.5927 40.6977 40.6977C38.5928 42.8027 36.0938 44.4724 33.3435 45.6116C30.5932 46.7508 27.6455 47.3372 24.6686 47.3372C18.6565 47.3372 12.8907 44.9489 8.63948 40.6977C4.38829 36.4465 2 30.6806 2 24.6686C2 21.6917 2.58634 18.7439 3.72554 15.9937C4.86475 13.2434 6.53451 10.7444 8.63948 8.63943C10.7445 6.53445 13.2434 4.86469 15.9937 3.72549C18.744 2.58628 21.6917 1.99995 24.6686 1.99995Z" stroke="#1AA090" stroke-width="4" stroke-linecap="round" stroke-linejoin="round"/>
<path d="M43.522 50.6462L50.646 43.5222" stroke="#1AA090" stroke-width="4" stroke-linecap="round" stroke-linejoin="round"/>
<path d="M47.0841 47.0842L40.6978 40.6979" stroke="#1AA090" stroke-width="4" stroke-linecap="round" stroke-linejoin="round"/>
<path d="M49.6028 56.7268L56.7268 49.6028" stroke="#1AA090" stroke-width="4" stroke-linecap="round" stroke-linejoin="round"/>
<path d="M24.6685 12.0748C28.0085 12.0748 31.2118 13.4016 33.5735 15.7634C35.9353 18.1252 37.2621 21.3284 37.2621 24.6685" stroke="#1AA090" stroke-width="4" stroke-linecap="round" stroke-linejoin="round"/>
</svg>
