<svg width="72" height="72" viewBox="0 0 72 72" fill="none" xmlns="http://www.w3.org/2000/svg">
<path d="M19.146 17.904C23.9272 14.0732 29.8734 11.9902 36 12C42.375 12 48.234 14.208 52.854 17.904L57.213 13.545L61.455 17.787L57.096 22.146C60.2691 26.1184 62.2562 30.9061 62.8284 35.958C63.4007 41.0098 62.535 46.1206 60.3309 50.7022C58.1267 55.2838 54.6738 59.15 50.3694 61.8558C46.0651 64.5616 41.0842 65.9971 36 65.9971C30.9158 65.9971 25.9349 64.5616 21.6306 61.8558C17.3262 59.15 13.8733 55.2838 11.6692 50.7022C9.46506 46.1206 8.59933 41.0098 9.1716 35.958C9.74388 30.9061 11.7309 26.1184 14.904 22.146L10.545 17.79L14.787 13.548L19.146 17.904ZM36 60C38.7578 60 41.4885 59.4568 44.0364 58.4015C46.5842 57.3461 48.8992 55.7993 50.8493 53.8492C52.7993 51.8992 54.3461 49.5842 55.4015 47.0364C56.4568 44.4885 57 41.7578 57 39C57 36.2422 56.4568 33.5115 55.4015 30.9636C54.3461 28.4158 52.7993 26.1008 50.8493 24.1508C48.8992 22.2007 46.5842 20.6539 44.0364 19.5985C41.4885 18.5432 38.7578 18 36 18C30.4305 18 25.089 20.2125 21.1508 24.1508C17.2125 28.089 15 33.4305 15 39C15 44.5695 17.2125 49.911 21.1508 53.8492C25.089 57.7875 30.4305 60 36 60ZM39 36H48L33 55.5V42H24L39 22.485V36ZM24 3H48V9H24V3Z" fill="#1AA090"/>
</svg>
